{
    "asset" : {
        "generator" : "Khronos glTF Blender I/O v1.8.19",
        "version" : "2.0"
    },
    "scene" : 0,
    "scenes" : [
        {
            "name" : "Scene",
            "nodes" : [
                0
            ]
        }
    ],
    "nodes" : [
        {
            "mesh" : 0,
            "name" : "Plane",
            "rotation" : [
                0.7071068286895752,
                0,
                0,
                0.7071068286895752
            ],
            "scale" : [
                0.3005736768245697,
                0.3005736768245697,
                0.3005736768245697
            ],
            "translation" : [
                0.26556921005249023,
                0.27860167622566223,
                -0.11036260426044464
            ]
        }
    ],
    "meshes" : [
        {
            "name" : "Plane",
            "primitives" : [
                {
                    "attributes" : {
                        "POSITION" : 0,
                        "NORMAL" : 1,
                        "TEXCOORD_0" : 2
                    },
                    "indices" : 3
                }
            ]
        }
    ],
    "accessors" : [
        {
            "bufferView" : 0,
            "componentType" : 5126,
            "count" : 5808,
            "max" : [
                1.0199999809265137,
                0.019999999552965164,
                1.0199999809265137
            ],
            "min" : [
                -1.0199999809265137,
                -0.019999999552965164,
                -1.0199999809265137
            ],
            "type" : "VEC3"
        },
        {
            "bufferView" : 1,
            "componentType" : 5126,
            "count" : 5808,
            "type" : "VEC3"
        },
        {
            "bufferView" : 2,
            "componentType" : 5126,
            "count" : 5808,
            "type" : "VEC2"
        },
        {
            "bufferView" : 3,
            "componentType" : 5123,
            "count" : 8712,
            "type" : "SCALAR"
        }
    ],
    "bufferViews" : [
        {
            "buffer" : 0,
            "byteLength" : 69696,
            "byteOffset" : 0
        },
        {
            "buffer" : 0,
            "byteLength" : 69696,
            "byteOffset" : 69696
        },
        {
            "buffer" : 0,
            "byteLength" : 46464,
            "byteOffset" : 139392
        },
        {
            "buffer" : 0,
            "byteLength" : 17424,
            "byteOffset" : 185856
        }
    ],
    "buffers" : [
        {
            "byteLength" : 203280,
            "uri" : "data:application/octet-stream;base64,"
        }
    ]
}
