{
    "asset" : {
        "generator" : "Khronos glTF Blender I/O v1.8.19",
        "version" : "2.0"
    },
    "scene" : 0,
    "scenes" : [
        {
            "name" : "Scene",
            "nodes" : [
                0
            ]
        }
    ],
    "nodes" : [
        {
            "mesh" : 0,
            "name" : "Text",
            "rotation" : [
                0.7071068286895752,
                0,
                0,
                0.7071068286895752
            ],
            "translation" : [
                0,
                0.05787646025419235,
                -0.11036261916160583
            ]
        }
    ],
    "meshes" : [
        {
            "name" : "Text",
            "primitives" : [
                {
                    "attributes" : {
                        "POSITION" : 0,
                        "NORMAL" : 1,
                        "TEXCOORD_0" : 2
                    },
                    "indices" : 3
                }
            ]
        }
    ],
    "accessors" : [
        {
            "bufferView" : 0,
            "componentType" : 5126,
            "count" : 2576,
            "max" : [
                0.5058730244636536,
                0.009898215532302856,
                0.009999999776482582
            ],
            "min" : [
                0.01727873645722866,
                -0.009898216463625431,
                -0.47097450494766235
            ],
            "type" : "VEC3"
        },
        {
            "bufferView" : 1,
            "componentType" : 5126,
            "count" : 2576,
            "type" : "VEC3"
        },
        {
            "bufferView" : 2,
            "componentType" : 5126,
            "count" : 2576,
            "type" : "VEC2"
        },
        {
            "bufferView" : 3,
            "componentType" : 5123,
            "count" : 14388,
            "type" : "SCALAR"
        }
    ],
    "bufferViews" : [
        {
            "buffer" : 0,
            "byteLength" : 30912,
            "byteOffset" : 0
        },
        {
            "buffer" : 0,
            "byteLength" : 30912,
            "byteOffset" : 30912
        },
        {
            "buffer" : 0,
            "byteLength" : 20608,
            "byteOffset" : 61824
        },
        {
            "buffer" : 0,
            "byteLength" : 28776,
            "byteOffset" : 82432
        }
    ],
    "buffers" : [
        {
            "byteLength" : 111208,
            "uri" : "data:application/octet-stream;base64,"
        }
    ]
}
