{
    "asset" : {
        "generator" : "Khronos glTF Blender I/O v1.8.19",
        "version" : "2.0"
    },
    "scene" : 0,
    "scenes" : [
        {
            "name" : "Scene",
            "nodes" : [
                0
            ]
        }
    ],
    "nodes" : [
        {
            "mesh" : 0,
            "name" : "Text",
            "rotation" : [
                0.7071068286895752,
                0,
                0,
                0.7071068286895752
            ],
            "translation" : [
                -0.016124337911605835,
                0.014778725802898407,
                -0.0923757553100586
            ]
        }
    ],
    "materials" : [
        {
            "doubleSided" : true,
            "emissiveFactor" : [
                0,
                1,
                0.32581627368927
            ],
            "pbrMetallicRoughness" : {}
        }
    ],
    "meshes" : [
        {
            "name" : "Text",
            "primitives" : [
                {
                    "attributes" : {
                        "POSITION" : 0,
                        "NORMAL" : 1,
                        "TEXCOORD_0" : 2
                    },
                    "indices" : 3,
                    "material" : 0
                }
            ]
        }
    ],
    "accessors" : [
        {
            "bufferView" : 0,
            "componentType" : 5126,
            "count" : 24050,
            "max" : [
                3.3383755683898926,
                0.009466918185353279,
                0.008319001644849777
            ],
            "min" : [
                -0.021250786259770393,
                -0.007835248485207558,
                -0.58571457862854
            ],
            "type" : "VEC3"
        },
        {
            "bufferView" : 1,
            "componentType" : 5126,
            "count" : 24050,
            "type" : "VEC3"
        },
        {
            "bufferView" : 2,
            "componentType" : 5126,
            "count" : 24050,
            "type" : "VEC2"
        },
        {
            "bufferView" : 3,
            "componentType" : 5123,
            "count" : 132480,
            "type" : "SCALAR"
        }
    ],
    "bufferViews" : [
        {
            "buffer" : 0,
            "byteLength" : 288600,
            "byteOffset" : 0
        },
        {
            "buffer" : 0,
            "byteLength" : 288600,
            "byteOffset" : 288600
        },
        {
            "buffer" : 0,
            "byteLength" : 192400,
            "byteOffset" : 577200
        },
        {
            "buffer" : 0,
            "byteLength" : 264960,
            "byteOffset" : 769600
        }
    ],
    "buffers" : [
        {
            "byteLength" : 1034560,
            "uri" : "data:application/octet-stream;base64,"
        }
    ]
}
